<?xml version="1.0" standalone="no"?>
<!DOCTYPE svg PUBLIC "-//W3C//DTD SVG 20010904//EN"
 "http://www.w3.org/TR/2001/REC-SVG-20010904/DTD/svg10.dtd">
<svg version="1.0" xmlns="http://www.w3.org/2000/svg"
 width="512.000000pt" height="512.000000pt" viewBox="0 0 512.000000 512.000000"
 preserveAspectRatio="xMidYMid meet">
<metadata>
Created by potrace 1.14, written by Peter Selinger 2001-2017
</metadata>
<g transform="translate(0.000000,512.000000) scale(0.100000,-0.100000)"
fill="#000000" stroke="none">
<path d="M2671 5058 c-30 -65 -111 -235 -271 -563 -88 -181 -130 -272 -130
-281 0 -2 10 -3 22 -1 16 1 23 -3 23 -18 0 -11 -5 -24 -12 -30 -6 -5 -13 -19
-15 -30 -2 -11 -7 -23 -13 -27 -6 -5 -5 -8 3 -9 6 -1 18 -2 25 -3 6 -1 15 3
19 9 5 6 8 4 8 -5 0 -13 1 -13 10 0 8 12 10 12 10 1 0 -11 3 -11 17 0 9 8 14
10 11 4 -4 -6 10 -10 33 -11 21 -1 39 3 39 8 0 5 6 6 13 1 22 -14 40 -12 54 5
10 13 13 13 11 2 -3 -16 23 -21 34 -5 5 6 8 4 8 -5 0 -13 1 -13 10 0 8 12 10
12 10 1 0 -11 3 -11 17 0 9 8 14 10 11 4 -4 -6 10 -10 33 -11 21 -1 39 3 39 9
0 5 6 5 14 -2 26 -22 73 7 67 42 -1 5 2 6 7 3 12 -7 54 42 47 55 -4 5 -2 8 2
7 5 -2 29 20 52 47 23 28 51 60 62 71 25 29 24 32 -11 29 -16 -1 -28 1 -25 5
3 4 18 6 35 5 24 -2 36 5 65 41 20 24 33 49 30 54 -4 6 -3 10 2 9 21 -4 33 2
33 16 0 8 5 15 10 15 6 0 10 5 10 11 0 5 -5 7 -12 3 -7 -4 -8 -3 -4 4 4 6 12
9 19 7 16 -5 100 102 91 117 -4 6 -3 8 3 5 13 -8 37 18 29 31 -3 6 2 9 11 8
10 0 19 9 22 22 3 13 11 23 16 23 18 -1 10 22 -8 25 -11 1 -22 5 -25 9 -8 8
44 -1 58 -10 5 -3 10 -2 10 4 0 6 9 19 21 30 12 11 18 24 14 30 -3 6 0 11 8
11 7 0 23 11 35 25 12 14 20 25 17 25 -2 0 6 10 18 23 26 27 91 106 95 117 1
4 -17 6 -42 5 l-45 -1 19 26 c11 15 26 33 35 40 8 7 15 16 15 21 0 5 -175 9
-395 9 l-396 0 -28 -62z m794 -59 c2 -3 -8 -5 -25 -5 -16 0 -27 3 -25 6 5 8
42 6 50 -1z m-18 -35 c-8 -9 -47 -13 -51 -6 -2 4 9 8 25 8 17 1 28 0 26 -2z
m-67 -18 c0 -2 -8 -10 -17 -17 -16 -13 -17 -12 -4 4 13 16 21 21 21 13z m29
-19 c8 -10 7 -14 -2 -14 -8 0 -14 6 -14 14 0 7 1 13 2 13 2 0 8 -6 14 -13z
m-39 -27 c0 -5 -2 -10 -4 -10 -3 0 -8 5 -11 10 -3 6 -1 10 4 10 6 0 11 -4 11
-10z m-80 -80 c0 -5 -5 -10 -11 -10 -5 0 -7 5 -4 10 3 6 8 10 11 10 2 0 4 -4
4 -10z m-86 -106 c3 -8 2 -12 -4 -9 -6 3 -10 10 -10 16 0 14 7 11 14 -7z
m-160 -200 c3 -8 2 -12 -4 -9 -6 3 -10 10 -10 16 0 14 7 11 14 -7z m-29 -74
c3 -6 -1 -7 -9 -4 -18 7 -21 14 -7 14 6 0 13 -4 16 -10z m-106 -113 c8 -10 7
-14 -2 -14 -8 0 -14 6 -14 14 0 7 1 13 2 13 2 0 8 -6 14 -13z m-68 -40 c-10
-9 -11 -8 -5 6 3 10 9 15 12 12 3 -3 0 -11 -7 -18z m4 -35 c-3 -3 -11 0 -18 7
-9 10 -8 11 6 5 10 -3 15 -9 12 -12z m-379 -54 c3 -4 -2 -5 -13 -4 -10 2 -25
-2 -33 -8 -13 -9 -13 -9 -2 6 12 16 35 18 48 6z m185 -1 c-6 -8 -7 -18 -3 -22
4 -5 1 -5 -6 -1 -10 6 -10 11 -1 22 6 8 14 14 16 14 3 0 0 -6 -6 -13z m159 3
c0 -5 -2 -10 -4 -10 -3 0 -8 5 -11 10 -3 6 -1 10 4 10 6 0 11 -4 11 -10z
m-449 -53 c-10 -9 -11 -8 -5 6 3 10 9 15 12 12 3 -3 0 -11 -7 -18z m80 0 c-10
-9 -11 -8 -5 6 3 10 9 15 12 12 3 -3 0 -11 -7 -18z m160 0 c-10 -9 -11 -8 -5
6 3 10 9 15 12 12 3 -3 0 -11 -7 -18z m-187 -5 c3 -5 -1 -9 -9 -9 -8 0 -15 4
-15 9 0 4 4 8 9 8 6 0 12 -4 15 -8z m240 0 c3 -5 -1 -9 -9 -9 -8 0 -15 4 -15
9 0 4 4 8 9 8 6 0 12 -4 15 -8z m73 -7 c0 -8 -4 -12 -9 -9 -5 3 -6 10 -3 15 9
13 12 11 12 -6z"/>
<path d="M2408 3805 c-2 -2 -35 -6 -73 -9 -39 -4 -80 -8 -90 -10 -11 -2 -42
-7 -68 -10 -56 -8 -64 -10 -132 -26 -27 -6 -60 -14 -73 -16 -60 -12 -245 -81
-332 -125 -98 -49 -204 -122 -274 -188 -131 -123 -266 -375 -321 -601 -9 -36
-19 -73 -21 -82 -4 -12 0 -18 10 -18 11 0 15 -8 14 -25 -1 -14 -6 -25 -10 -25
-4 0 -8 -5 -8 -11 0 -5 6 -7 13 -3 9 6 9 4 1 -7 -6 -8 -14 -22 -18 -33 -5 -15
-2 -18 19 -14 14 3 25 2 25 -2 0 -4 15 -10 34 -12 22 -2 32 0 28 7 -3 5 0 5 9
-1 12 -10 94 -24 166 -29 13 -1 26 -4 29 -8 4 -3 16 -2 27 4 14 8 18 8 13 0
-5 -7 7 -11 33 -12 72 -2 76 -3 83 -14 5 -6 8 -4 8 5 0 10 3 11 8 4 4 -6 27
-13 52 -16 l45 -5 35 106 c19 58 34 112 34 118 -1 7 1 11 5 9 4 -3 13 10 20
27 8 18 21 40 29 50 8 9 13 20 10 23 -3 3 7 19 23 37 16 17 27 33 24 35 -2 2
15 23 38 45 23 23 41 46 39 52 -2 5 -1 7 3 3 4 -3 37 13 74 37 37 24 83 48
102 53 18 5 33 14 32 19 -1 6 9 8 22 5 14 -2 25 0 25 4 0 5 12 9 28 10 25 1
73 10 80 15 3 2 38 6 73 8 21 1 28 5 23 14 -6 9 -4 9 7 1 19 -14 38 -12 49 6
7 10 10 11 10 3 0 -8 15 -13 40 -13 25 0 40 5 40 13 0 9 2 9 8 0 5 -8 37 -12
92 -12 47 0 87 0 90 -1 29 -8 41 -7 37 4 -3 7 1 13 8 13 8 0 11 -7 7 -15 -4
-11 0 -14 15 -10 11 3 28 1 38 -5 14 -7 16 -7 9 4 -7 12 -5 12 9 0 9 -7 24
-11 32 -7 8 3 15 1 15 -4 0 -6 7 -10 16 -10 9 0 13 5 9 13 -4 6 -1 5 7 -3 19
-23 124 -50 138 -36 8 8 10 7 5 -5 -4 -11 10 -22 55 -42 34 -15 66 -25 72 -21
7 5 8 2 4 -5 -10 -15 23 -41 41 -34 8 3 13 0 11 -8 -2 -8 3 -13 10 -11 8 1 11
-2 8 -7 -3 -5 1 -14 9 -21 12 -10 19 -10 33 1 15 13 16 12 4 -3 -12 -14 -11
-21 5 -42 10 -14 21 -26 26 -26 4 0 7 -6 7 -12 0 -16 46 -108 51 -103 2 2 5
-9 5 -23 2 -33 8 -64 15 -77 3 -5 7 -64 8 -131 l3 -121 -29 -11 c-43 -17 -173
-53 -243 -67 -3 0 -39 -8 -80 -18 -41 -9 -102 -21 -135 -27 -33 -5 -69 -12
-80 -14 -11 -2 -55 -9 -98 -16 -43 -6 -91 -14 -105 -17 -15 -2 -40 -6 -57 -8
-16 -1 -66 -8 -110 -14 -44 -6 -102 -13 -130 -16 -46 -6 -210 -29 -295 -41
-334 -51 -615 -176 -798 -356 -142 -140 -260 -363 -278 -528 -3 -25 -7 -52
-10 -61 -5 -20 -6 -245 0 -329 7 -107 52 -284 69 -273 6 3 7 1 3 -6 -10 -16
44 -131 61 -131 8 0 12 -4 8 -9 -7 -12 44 -87 57 -83 5 1 7 -1 4 -6 -3 -4 8
-23 24 -42 26 -30 30 -32 47 -19 17 13 17 13 4 -4 -12 -16 -11 -21 14 -47 16
-17 35 -30 42 -30 8 0 11 -5 7 -12 -5 -8 -2 -9 10 -5 9 4 15 3 12 -1 -5 -8 28
-42 41 -42 3 0 14 -6 22 -14 18 -17 112 -65 125 -64 5 0 12 -4 15 -9 11 -15
110 -45 122 -37 8 4 9 3 5 -4 -7 -12 1 -15 37 -15 9 0 17 -3 17 -7 0 -4 13
-10 29 -13 16 -3 41 -9 56 -13 22 -6 26 -4 20 7 -7 12 -6 12 7 1 21 -17 107
-32 114 -20 4 7 9 6 13 -1 12 -18 124 -19 139 -1 11 13 11 13 6 -2 -4 -13 -1
-18 11 -18 10 0 13 4 9 13 -6 9 -4 9 7 1 18 -14 75 -12 72 2 -1 6 5 11 12 11
11 0 12 -4 4 -14 -9 -10 -7 -13 10 -13 12 0 20 4 16 9 -3 5 0 13 6 17 8 4 9 3
5 -4 -10 -16 34 -19 139 -7 74 8 90 12 88 22 -1 5 4 10 12 10 8 0 12 -4 9 -9
-3 -4 4 -8 16 -8 12 0 18 4 15 10 -3 5 0 7 8 4 8 -3 52 5 98 17 46 11 94 23
106 26 13 3 21 8 19 12 -2 3 10 7 27 8 17 1 35 7 41 13 5 5 15 10 22 10 7 0
51 18 99 41 l87 40 -18 22 -19 22 22 -18 c21 -19 23 -18 62 4 23 12 41 27 41
31 0 5 5 6 12 2 8 -5 9 -2 4 11 -5 15 -4 16 9 5 8 -7 15 -8 15 -2 0 5 10 12
21 15 15 4 20 11 15 23 -5 14 -4 15 9 4 10 -8 15 -9 15 -1 0 6 5 11 10 11 6 0
16 5 23 10 7 6 33 27 59 46 26 20 45 40 42 45 -3 5 1 7 8 4 7 -3 32 12 56 34
23 21 43 37 43 35 5 -14 7 -27 8 -50 1 -17 5 -23 14 -18 9 5 9 4 0 -6 -7 -8
-9 -20 -3 -35 5 -13 6 -26 3 -29 -4 -3 -2 -6 4 -6 7 0 9 -10 5 -22 -5 -21 -4
-22 14 -8 19 14 19 14 0 -8 -11 -12 -16 -23 -13 -23 4 -1 11 -2 16 -3 5 0 13
-5 18 -10 5 -5 3 -6 -4 -2 -9 5 -13 -1 -13 -18 0 -14 5 -26 10 -26 6 0 10 -6
9 -12 -4 -31 2 -49 13 -42 6 4 8 3 4 -4 -3 -6 -1 -23 6 -39 6 -15 11 -31 10
-35 -1 -5 3 -8 8 -8 6 0 10 5 10 12 0 6 3 8 6 5 4 -4 1 -13 -5 -21 -15 -18 -7
-22 53 -25 42 -2 48 -1 38 11 -9 12 -9 15 3 15 7 0 13 -5 12 -11 -1 -6 14 -11
33 -11 23 0 34 5 32 13 -1 8 2 11 8 7 6 -3 8 -10 5 -14 -2 -5 54 -9 125 -9 99
-1 129 2 123 11 -5 9 -3 9 8 0 10 -8 45 -11 97 -10 45 1 82 3 82 4 0 1 -4 13
-10 27 -7 19 -15 24 -32 21 -22 -4 -22 -4 -4 10 16 12 17 18 8 27 -19 19 -14
28 18 28 l30 0 -30 59 c-76 149 -120 308 -136 486 -3 39 -8 88 -10 110 -3 22
-7 333 -9 690 -11 1417 -11 1433 -68 1600 -45 133 -90 211 -182 323 -30 37
-141 116 -225 160 -173 91 -352 142 -580 168 -49 5 -517 13 -522 9z m37 -504
c3 -5 2 -12 -3 -15 -5 -3 -9 1 -9 9 0 17 3 19 12 6z m-40 -10 c3 -5 2 -12 -3
-15 -5 -3 -9 1 -9 9 0 17 3 19 12 6z m83 -16 c-3 -3 -9 2 -12 12 -6 14 -5 15
5 6 7 -7 10 -15 7 -18z m99 10 c0 -8 -4 -15 -9 -15 -10 0 -11 14 -1 23 9 10
10 9 10 -8z m143 -10 c0 -2 -9 -3 -19 -2 -11 0 -18 5 -15 9 4 6 34 0 34 -7z
m-360 -13 c0 -5 -7 -9 -15 -9 -8 0 -12 4 -9 9 3 4 9 8 15 8 5 0 9 -4 9 -8z
m196 -28 c1 -9 0 -13 -4 -10 -3 4 -7 14 -8 22 -1 9 0 13 4 10 3 -4 7 -14 8
-22z m-299 1 c0 -8 -4 -12 -9 -9 -4 3 -8 9 -8 15 0 5 4 9 8 9 5 0 9 -7 9 -15z
m187 7 c3 -5 -1 -9 -9 -9 -8 0 -12 4 -9 9 3 4 7 8 9 8 2 0 6 -4 9 -8z m53 -7
c0 -8 -4 -12 -9 -9 -4 3 -8 9 -8 15 0 5 4 9 8 9 5 0 9 -7 9 -15z m240 0 c0 -8
-4 -12 -9 -9 -4 3 -8 9 -8 15 0 5 4 9 8 9 5 0 9 -7 9 -15z m207 7 c3 -5 -1 -9
-9 -9 -8 0 -12 4 -9 9 3 4 7 8 9 8 2 0 6 -4 9 -8z m32 -37 c1 -8 -1 -17 -5
-19 -4 -3 -7 6 -7 19 0 25 8 25 12 0z m-766 2 c0 -2 -10 -12 -22 -23 l-23 -19
19 23 c18 21 26 27 26 19z m785 -46 c-9 -8 -36 -10 -30 -2 2 4 11 8 20 8 8 0
13 -3 10 -6z m61 -3 c3 -4 -1 -5 -10 -4 -8 1 -18 5 -22 8 -3 4 1 5 10 4 8 -1
18 -5 22 -8z m-20 -44 c1 -9 -1 -13 -4 -9 -4 4 -7 10 -7 13 0 4 -4 14 -9 22
-7 12 -6 13 4 3 8 -7 15 -20 16 -29z m-1104 11 c2 3 5 -2 5 -10 0 -10 -4 -12
-12 -5 -7 5 -14 8 -17 5 -2 -3 -5 2 -5 10 0 10 4 12 12 5 7 -5 14 -8 17 -5z
m1162 -3 c3 -5 -1 -9 -9 -9 -8 0 -12 4 -9 9 3 4 7 8 9 8 2 0 6 -4 9 -8z m121
-41 c3 -5 2 -12 -3 -15 -5 -3 -9 1 -9 9 0 17 3 19 12 6z m-1340 -10 c3 -5 2
-12 -3 -15 -5 -3 -9 1 -9 9 0 17 3 19 12 6z m-79 -77 c0 -13 -2 -22 -5 -19 -3
3 -6 17 -7 31 0 13 2 22 5 19 3 -3 6 -17 7 -31z m39 18 c-3 -3 -11 0 -18 7 -9
10 -8 11 6 5 10 -3 15 -9 12 -12z m1450 -32 c3 -6 -1 -7 -9 -4 -18 7 -21 14
-7 14 6 0 13 -4 16 -10z m29 -106 c3 -8 2 -12 -4 -9 -6 3 -10 10 -10 16 0 14
7 11 14 -7z m-2040 -200 c3 -8 2 -12 -4 -9 -6 3 -10 10 -10 16 0 14 7 11 14
-7z m5 -27 c-2 -2 -11 -8 -20 -15 -12 -9 -16 -9 -16 1 0 7 9 14 20 14 11 1 18
1 16 0z m335 -13 c3 -8 2 -12 -4 -9 -6 3 -10 10 -10 16 0 14 7 11 14 -7z
m-157 -29 c0 -8 -4 -15 -9 -15 -10 0 -11 14 -1 23 9 10 10 9 10 -8z m142 -12
c2 -1 -5 -1 -16 0 -11 0 -20 7 -20 14 0 10 4 10 16 1 9 -7 18 -13 20 -15z
m-385 9 c3 -5 -1 -9 -9 -9 -8 0 -12 4 -9 9 3 4 7 8 9 8 2 0 6 -4 9 -8z m183 1
c-4 -3 -1 -13 6 -22 11 -14 10 -14 -5 -2 -16 12 -16 31 -1 31 4 0 3 -3 0 -7z
m-77 -7 c0 -2 -8 -10 -17 -17 -16 -13 -17 -12 -4 4 13 16 21 21 21 13z m280
-30 c0 -3 -4 -8 -10 -11 -5 -3 -10 -1 -10 4 0 6 5 11 10 11 6 0 10 -2 10 -4z
m1755 -645 c-9 -8 -36 -10 -30 -2 2 4 11 8 20 8 8 0 13 -3 10 -6z m-224 -54
c-10 -9 -11 -8 -5 6 3 10 9 15 12 12 3 -3 0 -11 -7 -18z m224 13 c3 -5 1 -10
-4 -10 -6 0 -11 5 -11 10 0 6 2 10 4 10 3 0 8 -4 11 -10z m-115 -22 c0 -4 -4
-8 -9 -8 -6 0 -12 4 -15 8 -3 5 1 9 9 9 8 0 15 -4 15 -9z m-185 -17 c-8 -7
-45 -9 -50 -1 -2 3 9 6 25 6 17 0 27 -2 25 -5z m221 -3 c4 -7 4 -10 -1 -6 -4
4 -15 2 -24 -5 -14 -11 -14 -10 -2 6 16 20 18 21 27 5z m81 -173 c-3 -99 -8
-193 -11 -210 -3 -16 -9 -46 -12 -65 -13 -75 -16 -87 -39 -156 -43 -129 -114
-238 -223 -342 -198 -189 -463 -290 -777 -297 -176 -4 -316 18 -425 67 -61 27
-159 99 -190 138 -14 18 -30 38 -36 44 -46 49 -95 199 -87 267 2 24 5 54 6 67
0 12 4 22 8 22 4 0 12 14 18 31 9 26 8 30 -5 25 -8 -3 -12 -2 -9 4 3 6 13 10
21 10 11 0 14 6 9 23 -4 15 -3 18 3 9 7 -10 12 -8 24 10 8 13 16 26 16 31 1 4
20 24 42 44 27 25 36 40 30 48 -7 8 -5 12 5 12 8 0 12 -4 9 -9 -9 -14 4 -9 48
21 45 30 118 65 131 63 4 -1 7 3 7 9 0 5 4 8 9 5 13 -9 62 12 78 32 12 16 13
16 7 -2 -6 -16 -4 -17 12 -8 20 11 26 12 48 12 9 0 13 7 11 18 -2 11 3 19 11
19 10 0 11 -4 3 -13 -6 -8 -6 -14 0 -18 5 -4 12 -2 16 3 3 5 14 8 25 6 11 -2
20 1 20 6 0 6 5 7 10 4 6 -3 15 -3 21 1 7 4 27 8 46 10 19 2 53 6 76 9 135 17
142 19 131 37 -4 7 -2 8 5 4 6 -4 9 -11 7 -15 -8 -12 108 10 116 23 5 7 8 6 8
-4 0 -9 3 -11 8 -5 4 6 25 11 46 12 22 1 43 8 47 15 6 9 9 9 9 1 0 -12 37 -6
58 10 8 6 12 6 12 -2 0 -8 6 -9 18 -2 9 5 20 9 25 10 4 0 22 3 40 6 65 12 72
13 85 14 7 1 11 4 9 9 -3 4 9 8 26 8 58 3 169 33 162 45 -3 4 -1 11 5 14 6 4
10 3 9 -2 -3 -18 2 -24 14 -16 6 4 14 8 17 8 35 6 130 40 130 47 0 5 5 6 10 3
6 -3 10 -2 10 2 0 5 10 9 21 9 21 0 21 -2 16 -181z m-443 157 c2 -4 -5 -9 -17
-9 -17 -2 -19 0 -7 7 18 12 18 12 24 2z m143 -17 c0 -8 -4 -15 -9 -15 -10 0
-11 14 -1 23 9 10 10 9 10 -8z m-213 -6 c3 -3 -5 -5 -19 -5 -13 0 -22 3 -19 7
4 8 30 6 38 -2z m249 -14 c-3 -9 -8 -14 -10 -11 -3 3 -2 9 2 15 9 16 15 13 8
-4z m-175 -14 c-7 -9 -13 -18 -15 -20 -1 -2 -1 5 0 16 0 11 7 20 14 20 10 0
10 -4 1 -16z m38 4 c-1 -8 -5 -17 -8 -21 -5 -4 -4 16 1 34 3 9 9 -1 7 -13z
m-278 -20 c-3 -3 -9 2 -12 12 -6 14 -5 15 5 6 7 -7 10 -15 7 -18z m41 -19 c-3
-3 -11 5 -18 17 -13 21 -12 21 5 5 10 -10 16 -20 13 -22z m165 26 c3 -5 -1 -9
-9 -9 -8 0 -12 4 -9 9 3 4 7 8 9 8 2 0 6 -4 9 -8z m116 4 c0 -2 -7 -7 -16 -10
-8 -3 -12 -2 -9 4 6 10 25 14 25 6z m-485 -15 c3 -5 2 -12 -3 -15 -5 -3 -9 1
-9 9 0 17 3 19 12 6z m45 5 c0 -2 -8 -10 -17 -17 -16 -13 -17 -12 -4 4 13 16
21 21 21 13z m193 -31 c-7 -21 -12 -19 -10 4 0 11 5 18 9 15 4 -3 5 -11 1 -19z
m87 17 c0 -5 -7 -9 -15 -9 -8 0 -12 4 -9 9 3 4 9 8 15 8 5 0 9 -4 9 -8z m-260
-18 c0 -8 -19 -13 -24 -6 -3 5 1 9 9 9 8 0 15 -2 15 -3z m120 -3 c0 -6 -4 -12
-8 -15 -5 -3 -9 1 -9 9 0 8 4 15 9 15 4 0 8 -4 8 -9z m-384 -19 c-3 -3 -1 -10
4 -17 7 -8 6 -12 -3 -12 -7 0 -13 11 -13 23 0 12 4 20 9 17 4 -3 6 -8 3 -11z
m48 -4 c-3 -4 -9 -8 -15 -8 -5 0 -9 4 -9 8 0 5 7 9 15 9 8 0 12 -4 9 -9z m216
-2 c0 -2 -8 -10 -17 -17 -16 -13 -17 -12 -4 4 13 16 21 21 21 13z m-340 -12
c0 -8 -19 -13 -24 -6 -3 5 1 9 9 9 8 0 15 -2 15 -3z m177 -9 c0 -8 -4 -12 -9
-9 -4 3 -8 9 -8 15 0 5 4 9 8 9 5 0 9 -7 9 -15z m77 7 c3 -5 -1 -9 -9 -9 -8 0
-12 4 -9 9 3 4 7 8 9 8 2 0 6 -4 9 -8z m-418 -17 c-1 -8 -5 -17 -8 -21 -5 -4
-4 16 1 34 3 9 9 -1 7 -13z m-60 -19 c0 -14 -5 -21 -9 -17 -4 4 -5 15 -1 24 9
24 12 21 10 -7z m324 10 c0 -2 -8 -10 -17 -17 -16 -13 -17 -12 -4 4 13 16 21
21 21 13z m-209 -23 c12 -16 12 -17 -2 -6 -9 7 -20 9 -24 5 -5 -4 -5 -1 -1 6
9 16 11 15 27 -5z m-217 -12 c3 -5 -2 -15 -12 -22 -15 -12 -16 -12 -5 2 7 9
10 19 6 22 -3 4 -4 7 0 7 3 0 8 -4 11 -9z m-94 -62 c0 -5 -4 -9 -8 -9 -5 0 -9
7 -9 15 0 8 4 12 9 9 4 -3 8 -9 8 -15z m30 -12 c0 -2 -10 -12 -22 -23 l-23
-19 19 23 c18 21 26 27 26 19z m25 -16 c3 -5 2 -12 -3 -15 -5 -3 -9 1 -9 9 0
17 3 19 12 6z m-80 -40 c3 -5 2 -12 -3 -15 -5 -3 -9 1 -9 9 0 17 3 19 12 6z
m-120 -79 c-3 -3 -11 0 -18 7 -9 10 -8 11 6 5 10 -3 15 -9 12 -12z m-35 -48
c0 -8 -19 -13 -24 -6 -3 5 1 9 9 9 8 0 15 -2 15 -3z m-575 -804 c10 -11 16
-20 13 -20 -3 0 -13 9 -23 20 -10 11 -16 20 -13 20 3 0 13 -9 23 -20z m2330
-8 c-3 -3 -11 0 -18 7 -9 10 -8 11 6 5 10 -3 15 -9 12 -12z m-35 -14 c0 -4 -4
-8 -9 -8 -6 0 -12 4 -15 8 -3 5 1 9 9 9 8 0 15 -4 15 -9z m-2275 -18 c3 -6 -1
-7 -9 -4 -18 7 -21 14 -7 14 6 0 13 -4 16 -10z m2195 -20 c0 -5 -5 -10 -11
-10 -5 0 -7 5 -4 10 3 6 8 10 11 10 2 0 4 -4 4 -10z m94 1 c-9 -9 -34 -9 -34
-1 0 5 9 8 20 7 10 -1 17 -3 14 -6z m-54 -15 c0 -3 -4 -8 -10 -11 -5 -3 -10
-1 -10 4 0 6 5 11 10 11 6 0 10 -2 10 -4z m-40 -24 c0 -5 -7 -9 -15 -9 -8 0
-12 4 -9 9 3 4 9 8 15 8 5 0 9 -4 9 -8z m-120 -42 c0 -5 -5 -10 -11 -10 -5 0
-7 5 -4 10 3 6 8 10 11 10 2 0 4 -4 4 -10z m-49 -47 c13 -16 12 -17 -3 -4 -17
13 -22 21 -14 21 2 0 10 -8 17 -17z m-1856 -12 c-9 -8 -36 -10 -30 -2 2 4 11
8 20 8 8 0 13 -3 10 -6z m1830 -1 c-3 -5 -12 -10 -18 -10 -7 0 -6 4 3 10 19
12 23 12 15 0z m39 -22 c-3 -4 -9 -8 -15 -8 -5 0 -9 4 -9 8 0 5 7 9 15 9 8 0
12 -4 9 -9z m-1830 -28 c-6 -6 -10 -3 -10 10 0 13 4 16 10 10 7 -7 7 -13 0
-20z m-54 -10 c0 -5 -2 -10 -4 -10 -3 0 -8 5 -11 10 -3 6 -1 10 4 10 6 0 11
-4 11 -10z m86 -22 c3 -4 -1 -5 -10 -4 -8 1 -18 5 -22 8 -3 4 1 5 10 4 8 -1
18 -5 22 -8z m49 2 c3 -5 1 -10 -4 -10 -6 0 -11 5 -11 10 0 6 2 10 4 10 3 0 8
-4 11 -10z m1662 -15 c0 -8 -4 -12 -9 -9 -5 3 -6 10 -3 15 9 13 12 11 12 -6z
m-171 -27 c12 -14 13 -18 3 -10 -9 6 -18 10 -21 7 -2 -3 -5 2 -5 10 0 19 0 19
23 -7z m45 -11 c-10 -9 -11 -8 -5 6 3 10 9 15 12 12 3 -3 0 -11 -7 -18z
m-1554 -4 c-4 -3 1 -16 10 -27 18 -21 18 -21 -4 -2 -20 16 -23 36 -6 36 4 0 3
-3 0 -7z m83 -7 c0 -2 -6 -9 -14 -15 -11 -9 -16 -9 -22 0 -4 7 -3 9 4 5 6 -3
13 -2 17 4 6 10 15 14 15 6z m1437 -21 c0 -8 -4 -12 -9 -9 -4 3 -8 9 -8 15 0
5 4 9 8 9 5 0 9 -7 9 -15z m-1322 -4 c3 -5 2 -12 -3 -15 -5 -3 -9 1 -9 9 0 17
3 19 12 6z m45 -5 c0 -2 -7 -7 -16 -10 -8 -3 -12 -2 -9 4 6 10 25 14 25 6z
m2104 -24 c3 -5 -1 -9 -9 -9 -8 0 -15 4 -15 9 0 10 17 10 24 0z m288 -10 c9
-9 9 -16 -4 -28 -11 -11 -18 -13 -23 -5 -4 7 -1 10 7 9 7 -2 13 4 13 12 0 8
-5 15 -12 15 -6 0 -14 3 -18 7 -4 3 0 5 9 4 9 -1 22 -8 28 -14z m85 1 c0 -8
-4 -10 -12 -3 -7 5 -16 6 -20 2 -5 -4 -5 -2 -2 4 9 15 34 13 34 -3z m-2393
-11 c3 -5 -1 -9 -9 -9 -8 0 -15 4 -15 9 0 10 17 10 24 0z m816 -2 c0 -5 -5
-10 -11 -10 -5 0 -7 5 -4 10 3 6 8 10 11 10 2 0 4 -4 4 -10z m1416 -5 c-1 -8
-5 -17 -8 -21 -5 -4 -4 16 1 34 3 9 9 -1 7 -13z m-2360 -10 c-1 -8 -5 -17 -8
-21 -5 -4 -4 16 1 34 3 9 9 -1 7 -13z m80 -11 c1 -9 0 -13 -4 -10 -3 4 -7 14
-8 22 -1 9 0 13 4 10 3 -4 7 -14 8 -22z m83 13 c8 -10 7 -14 -2 -14 -8 0 -14
6 -14 14 0 7 1 13 2 13 2 0 8 -6 14 -13z m877 -13 c1 -9 0 -13 -4 -10 -3 4 -7
14 -8 22 -1 9 0 13 4 10 3 -4 7 -14 8 -22z m-741 6 c3 -5 1 -10 -4 -10 -6 0
-11 5 -11 10 0 6 2 10 4 10 3 0 8 -4 11 -10z m465 6 c0 -2 -7 -7 -16 -10 -8
-3 -12 -2 -9 4 6 10 25 14 25 6z m60 -6 c0 -5 -5 -10 -11 -10 -5 0 -7 5 -4 10
3 6 8 10 11 10 2 0 4 -4 4 -10z m71 -13 c-10 -9 -11 -8 -5 6 3 10 9 15 12 12
3 -3 0 -11 -7 -18z m99 18 c0 -2 -6 -8 -13 -14 -10 -8 -14 -7 -14 2 0 8 6 14
14 14 7 0 13 -1 13 -2z m-746 -27 c-3 -4 -9 -8 -15 -8 -5 0 -9 4 -9 8 0 5 7 9
15 9 8 0 12 -4 9 -9z m116 2 c0 -5 -5 -10 -11 -10 -5 0 -7 5 -4 10 3 6 8 10
11 10 2 0 4 -4 4 -10z m160 6 c0 -3 -4 -8 -10 -11 -5 -3 -10 -1 -10 4 0 6 5
11 10 11 6 0 10 -2 10 -4z m1680 -2 c0 -8 -19 -13 -24 -6 -3 5 1 9 9 9 8 0 15
-2 15 -3z m-2033 -22 c-10 -10 -16 -21 -15 -23 2 -2 1 -3 -1 -1 -3 1 -6 9 -7
17 -1 8 2 13 6 10 5 -3 11 -1 15 5 3 5 9 10 12 10 3 0 -1 -8 -10 -18z m108 9
c3 -5 2 -12 -3 -15 -5 -3 -9 1 -9 9 0 17 3 19 12 6z m-79 -16 c-1 -8 -5 -17
-8 -21 -5 -4 -4 16 1 34 3 9 9 -1 7 -13z m201 -5 c-1 -21 -10 -18 -13 5 -1 8
2 15 6 15 5 0 8 -9 7 -20z m259 8 c3 -4 -1 -5 -10 -4 -8 1 -18 5 -22 8 -3 4 1
5 10 4 8 -1 18 -5 22 -8z m238 -4 c3 -8 2 -12 -4 -9 -6 3 -10 10 -10 16 0 14
7 11 14 -7z m-533 -11 c13 -16 12 -17 -3 -4 -10 7 -18 15 -18 17 0 8 8 3 21
-13z m-84 -18 c0 -8 -4 -12 -9 -9 -5 3 -6 10 -3 15 9 13 12 11 12 -6z m483 -1
c0 -8 -19 -13 -24 -6 -3 5 1 9 9 9 8 0 15 -2 15 -3z"/>
</g>
</svg>
